<?xml version="1.0" encoding="utf-8"?>
<!-- Generator: Adobe Illustrator 16.0.0, SVG Export Plug-In . SVG Version: 6.00 Build 0)  -->
<!DOCTYPE svg PUBLIC "-//W3C//DTD SVG 1.1//EN" "http://www.w3.org/Graphics/SVG/1.1/DTD/svg11.dtd">
<svg version="1.1" id="Слой_1" xmlns="http://www.w3.org/2000/svg" xmlns:xlink="http://www.w3.org/1999/xlink" x="0px" y="0px"
	 width="41.077px" height="14.738px" viewBox="51.48 11.848 41.077 14.738" enable-background="new 51.48 11.848 41.077 14.738"
	 xml:space="preserve">
<g display="none">
	<g display="inline">
		<g>
			<path d="M51.48,15.666h4.494v0.759h-3.675v1.88h3.398v0.717h-3.398v2.1h3.738v0.739H51.48V15.666z"/>
			<path fill="#7BBDE3" d="M61.137,21.857h-1.008l2.191-3.178l-2.054-3.014h1.046l1.561,2.37l1.55-2.37h0.994l-2.051,3.014
				l2.152,3.178h-1.036l-1.652-2.544L61.137,21.857z"/>
			<polygon fill="#DF8852" points="62.831,19.313 64.482,21.857 65.519,21.857 63.366,18.68 65.42,15.666 64.423,15.666 
				62.873,18.036 62.435,18.68 			"/>
			<polygon points="73.264,20.002 73.912,21.857 74.828,21.857 72.582,15.666 71.633,15.666 69.302,21.857 70.163,21.857 
				70.835,20.002 71.08,19.32 72.07,16.583 73.025,19.32 			"/>
			<path d="M79.039,15.666h0.84v5.457h3.107v0.739h-3.947V15.666z"/>
			<path d="M87.295,15.666h0.841v5.457h3.108v0.739h-3.945v-6.195H87.295z"/>
		</g>
	</g>
	<g display="inline">
		<path d="M51.638,24.308h0.21v0.634c0.045-0.061,0.102-0.109,0.168-0.141s0.136-0.049,0.213-0.049c0.161,0,0.287,0.057,0.389,0.164
			c0.098,0.109,0.147,0.27,0.147,0.483c0,0.203-0.049,0.368-0.147,0.501c-0.098,0.133-0.235,0.203-0.406,0.203
			c-0.098,0-0.178-0.025-0.245-0.07c-0.042-0.028-0.084-0.074-0.129-0.133v0.164h-0.199C51.638,26.061,51.638,24.308,51.638,24.308z
			 M52.457,25.777c0.06-0.091,0.087-0.213,0.087-0.363c0-0.134-0.028-0.246-0.087-0.333c-0.056-0.091-0.14-0.133-0.252-0.133
			c-0.098,0-0.182,0.034-0.255,0.108c-0.077,0.07-0.112,0.189-0.112,0.357c0,0.119,0.014,0.217,0.045,0.29
			c0.056,0.14,0.161,0.21,0.315,0.21C52.313,25.914,52.4,25.869,52.457,25.777z"/>
		<path d="M54.158,24.314h0.217v0.242h-0.217V24.314z M54.158,24.794h0.217v1.267h-0.217V24.794z"/>
		<path d="M55.887,24.434h0.217v0.357h0.203v0.174h-0.203v0.83c0,0.045,0.014,0.074,0.045,0.088
			c0.018,0.007,0.045,0.014,0.084,0.014c0.011,0,0.021,0,0.035,0c0.01,0,0.024-0.004,0.042-0.004v0.172
			c-0.028,0.007-0.053,0.011-0.081,0.014c-0.024,0.004-0.056,0.004-0.084,0.004c-0.102,0-0.168-0.024-0.203-0.077
			c-0.035-0.052-0.052-0.119-0.052-0.199v-0.844h-0.175v-0.175h0.172V24.434z"/>
		<path d="M58.508,24.857c0.091,0.069,0.144,0.188,0.161,0.359h-0.21c-0.011-0.08-0.039-0.143-0.084-0.195s-0.116-0.077-0.217-0.077
			c-0.137,0-0.235,0.066-0.294,0.2c-0.035,0.084-0.056,0.191-0.056,0.318c0,0.125,0.028,0.234,0.081,0.322
			c0.052,0.087,0.14,0.129,0.255,0.129c0.087,0,0.161-0.028,0.21-0.08c0.052-0.053,0.091-0.127,0.108-0.221h0.21
			c-0.024,0.168-0.084,0.29-0.178,0.371c-0.098,0.076-0.217,0.115-0.368,0.115c-0.168,0-0.301-0.06-0.399-0.182
			c-0.098-0.123-0.147-0.273-0.147-0.455c0-0.225,0.056-0.399,0.165-0.521c0.108-0.127,0.245-0.189,0.413-0.189
			C58.302,24.752,58.417,24.787,58.508,24.857z"/>
		<path d="M60.955,24.916c0.112,0.109,0.168,0.27,0.168,0.483c0,0.206-0.049,0.374-0.15,0.508c-0.098,0.133-0.252,0.199-0.458,0.199
			c-0.175,0-0.312-0.06-0.413-0.179c-0.105-0.115-0.158-0.276-0.158-0.476c0-0.214,0.053-0.386,0.161-0.511
			c0.108-0.127,0.255-0.189,0.438-0.189C60.703,24.752,60.842,24.809,60.955,24.916z M60.821,25.764
			c0.053-0.109,0.077-0.228,0.077-0.361c0-0.118-0.018-0.217-0.056-0.29c-0.059-0.118-0.161-0.175-0.308-0.175
			c-0.13,0-0.224,0.049-0.284,0.15c-0.056,0.102-0.087,0.221-0.087,0.36c0,0.137,0.028,0.249,0.087,0.34s0.15,0.136,0.28,0.136
			C60.671,25.924,60.769,25.869,60.821,25.764z"/>
		<path d="M62.533,24.314h0.217v0.242h-0.217V24.314z M62.533,24.794h0.217v1.267h-0.217V24.794z"/>
		<path d="M64.22,24.787h0.203v0.182c0.06-0.073,0.123-0.129,0.193-0.16c0.066-0.032,0.143-0.05,0.224-0.05
			c0.182,0,0.305,0.063,0.368,0.189c0.035,0.069,0.052,0.168,0.052,0.298v0.818h-0.22V25.26c0-0.077-0.011-0.141-0.035-0.189
			c-0.039-0.076-0.105-0.119-0.207-0.119c-0.052,0-0.091,0.004-0.126,0.014c-0.06,0.018-0.112,0.053-0.154,0.105
			c-0.035,0.042-0.06,0.084-0.07,0.13c-0.01,0.049-0.014,0.112-0.014,0.196v0.668H64.22V24.787L64.22,24.787z"/>
		<path d="M69.33,24.822c0.084,0.045,0.147,0.098,0.192,0.168c0.042,0.062,0.07,0.14,0.084,0.224c0.014,0.06,0.018,0.154,0.018,0.28
			H68.7c0.003,0.129,0.035,0.234,0.091,0.312s0.144,0.118,0.263,0.118c0.112,0,0.199-0.038,0.266-0.111
			c0.039-0.042,0.063-0.095,0.077-0.15h0.21c-0.003,0.049-0.021,0.102-0.052,0.157c-0.032,0.056-0.067,0.104-0.105,0.14
			c-0.063,0.063-0.144,0.105-0.242,0.13c-0.053,0.015-0.108,0.018-0.175,0.018c-0.158,0-0.291-0.06-0.403-0.175
			c-0.105-0.112-0.161-0.273-0.161-0.483c0-0.202,0.056-0.37,0.165-0.497c0.112-0.125,0.256-0.192,0.434-0.192
			C69.159,24.759,69.246,24.779,69.33,24.822z M69.407,25.322c-0.011-0.091-0.032-0.164-0.063-0.221
			c-0.056-0.104-0.154-0.153-0.29-0.153c-0.098,0-0.179,0.034-0.245,0.104s-0.102,0.161-0.105,0.27H69.407z"/>
		<path d="M71.146,24.787l0.339,1.036l0.354-1.036h0.235l-0.476,1.277h-0.228l-0.473-1.277H71.146z"/>
		<path d="M74.195,24.822c0.084,0.045,0.146,0.098,0.192,0.168c0.042,0.062,0.069,0.14,0.084,0.224
			c0.014,0.06,0.018,0.154,0.018,0.28h-0.925c0.004,0.129,0.035,0.234,0.092,0.312c0.056,0.077,0.143,0.118,0.262,0.118
			c0.112,0,0.2-0.038,0.267-0.111c0.038-0.042,0.063-0.095,0.077-0.15h0.21c-0.004,0.049-0.024,0.102-0.053,0.157
			c-0.031,0.056-0.066,0.104-0.104,0.14c-0.063,0.063-0.145,0.105-0.242,0.13c-0.053,0.015-0.108,0.018-0.175,0.018
			c-0.157,0-0.29-0.06-0.402-0.175c-0.104-0.112-0.161-0.273-0.161-0.483c0-0.202,0.057-0.37,0.164-0.497
			c0.112-0.125,0.256-0.192,0.435-0.192C74.023,24.759,74.111,24.779,74.195,24.822z M74.271,25.322
			c-0.01-0.091-0.031-0.164-0.062-0.221c-0.057-0.104-0.154-0.153-0.291-0.153c-0.098,0-0.178,0.034-0.244,0.104
			s-0.102,0.161-0.105,0.27H74.271z"/>
		<path d="M75.914,24.787h0.203v0.221c0.017-0.043,0.055-0.095,0.122-0.158c0.066-0.062,0.14-0.091,0.224-0.091
			c0.004,0,0.011,0,0.021,0c0.01,0,0.023,0.004,0.049,0.004v0.228c-0.014,0-0.025-0.004-0.035-0.004c-0.011,0-0.021,0-0.035,0
			c-0.108,0-0.192,0.035-0.248,0.105c-0.061,0.066-0.088,0.146-0.088,0.238v0.73h-0.213V24.787L75.914,24.787z"/>
		<path d="M78.661,24.787h0.237c-0.031,0.08-0.098,0.27-0.199,0.561c-0.08,0.22-0.146,0.398-0.199,0.535
			c-0.123,0.325-0.21,0.521-0.263,0.595c-0.049,0.069-0.136,0.108-0.263,0.108c-0.031,0-0.053,0-0.07-0.004
			c-0.017-0.003-0.034-0.006-0.059-0.014v-0.195c0.042,0.01,0.066,0.018,0.084,0.021c0.018,0,0.031,0.003,0.045,0.003
			c0.039,0,0.07-0.006,0.088-0.021s0.035-0.028,0.045-0.049c0.004-0.004,0.018-0.038,0.043-0.095
			c0.023-0.06,0.041-0.102,0.053-0.129l-0.47-1.316h0.241l0.344,1.039L78.661,24.787z"/>
		<path d="M80.327,24.787l0.245,1.004l0.248-1.004h0.242l0.248,0.998l0.259-0.998h0.214l-0.367,1.277h-0.221l-0.26-0.986
			l-0.252,0.986H80.46l-0.368-1.277H80.327z"/>
		<path d="M83.134,24.308h0.214v0.651c0.053-0.063,0.098-0.109,0.137-0.133c0.07-0.047,0.154-0.067,0.259-0.067
			c0.186,0,0.312,0.063,0.374,0.192c0.035,0.07,0.053,0.168,0.053,0.295v0.818h-0.217V25.26c0-0.095-0.011-0.161-0.035-0.207
			c-0.039-0.07-0.111-0.104-0.221-0.104c-0.088,0-0.168,0.031-0.241,0.091s-0.108,0.175-0.108,0.347v0.675h-0.214V24.308z"/>
		<path d="M86.42,24.822c0.084,0.042,0.147,0.098,0.193,0.164c0.041,0.062,0.07,0.141,0.084,0.225
			c0.014,0.059,0.018,0.153,0.018,0.279h-0.928c0.004,0.13,0.035,0.234,0.091,0.312s0.144,0.119,0.263,0.119
			c0.111,0,0.199-0.038,0.266-0.112c0.039-0.041,0.063-0.094,0.077-0.15h0.21c-0.007,0.046-0.024,0.098-0.056,0.158
			c-0.032,0.056-0.067,0.104-0.104,0.14c-0.063,0.063-0.145,0.104-0.242,0.13c-0.053,0.014-0.108,0.018-0.175,0.018
			c-0.157,0-0.29-0.061-0.403-0.176c-0.107-0.115-0.164-0.276-0.164-0.486c0-0.203,0.057-0.371,0.164-0.497
			c0.113-0.126,0.256-0.192,0.435-0.192C86.249,24.759,86.336,24.779,86.42,24.822z M86.498,25.322
			c-0.008-0.091-0.028-0.168-0.061-0.224c-0.059-0.102-0.153-0.154-0.29-0.154c-0.099,0-0.179,0.035-0.245,0.104
			c-0.066,0.07-0.102,0.162-0.105,0.27h0.701V25.322z"/>
		<path d="M88.143,24.787h0.203v0.221c0.018-0.043,0.056-0.095,0.122-0.158c0.067-0.062,0.14-0.091,0.224-0.091
			c0.004,0,0.012,0,0.021,0c0.011,0,0.024,0.004,0.049,0.004v0.228c-0.014-0.004-0.024-0.004-0.035-0.004c-0.01,0-0.021,0-0.035,0
			c-0.107,0-0.191,0.035-0.248,0.105c-0.06,0.07-0.088,0.15-0.088,0.241v0.731h-0.213V24.787L88.143,24.787z"/>
		<path d="M90.879,24.822c0.084,0.042,0.147,0.098,0.193,0.164c0.042,0.062,0.07,0.141,0.084,0.225
			c0.014,0.059,0.018,0.153,0.018,0.279h-0.928c0.004,0.13,0.035,0.234,0.091,0.312s0.144,0.119,0.263,0.119
			c0.111,0,0.199-0.038,0.266-0.112c0.039-0.041,0.063-0.094,0.08-0.15h0.211c-0.008,0.046-0.025,0.098-0.057,0.158
			c-0.031,0.056-0.066,0.104-0.104,0.14c-0.063,0.063-0.144,0.104-0.241,0.13c-0.053,0.014-0.109,0.018-0.176,0.018
			c-0.157,0-0.29-0.061-0.402-0.176c-0.108-0.115-0.164-0.276-0.164-0.486c0-0.203,0.056-0.371,0.164-0.497
			c0.112-0.126,0.256-0.192,0.434-0.192C90.708,24.759,90.795,24.779,90.879,24.822z M90.957,25.322
			c-0.008-0.091-0.028-0.168-0.061-0.224c-0.059-0.102-0.153-0.154-0.29-0.154c-0.099,0-0.179,0.035-0.245,0.104
			c-0.066,0.07-0.102,0.162-0.105,0.27h0.701V25.322z"/>
	</g>
</g>
<g>
	<g>
		<g>
			<path fill="#041C68" d="M51.48,15.666h4.494v0.759h-3.675v1.88h3.398v0.717h-3.398v2.1h3.738v0.739H51.48V15.666z"/>
			<path fill="#7BBDE3" d="M61.137,21.857h-1.008l2.191-3.178l-2.054-3.014h1.046l1.561,2.37l1.55-2.37h0.994l-2.051,3.014
				l2.152,3.178h-1.036l-1.652-2.544L61.137,21.857z"/>
			<polygon fill="#DF8852" points="62.831,19.313 64.482,21.857 65.519,21.857 63.366,18.68 65.42,15.666 64.423,15.666 
				62.873,18.036 62.435,18.68 			"/>
			<polygon fill="#041C68" points="73.264,20.002 73.912,21.857 74.828,21.857 72.582,15.666 71.633,15.666 69.302,21.857 
				70.163,21.857 70.835,20.002 71.08,19.32 72.07,16.583 73.025,19.32 			"/>
			<path fill="#041C68" d="M79.039,15.666h0.84v5.457h3.107v0.739h-3.947V15.666z"/>
			<path fill="#041C68" d="M87.295,15.666h0.841v5.457h3.108v0.739h-3.945v-6.195H87.295z"/>
		</g>
	</g>
	<g>
		<path fill="#041C68" d="M51.638,24.308h0.21v0.634c0.045-0.061,0.102-0.109,0.168-0.141s0.136-0.049,0.213-0.049
			c0.161,0,0.287,0.057,0.389,0.164c0.098,0.109,0.147,0.27,0.147,0.483c0,0.203-0.049,0.368-0.147,0.501
			c-0.098,0.133-0.235,0.203-0.406,0.203c-0.098,0-0.178-0.025-0.245-0.07c-0.042-0.028-0.084-0.074-0.129-0.133v0.164h-0.199
			C51.638,26.061,51.638,24.308,51.638,24.308z M52.457,25.777c0.06-0.091,0.087-0.213,0.087-0.363c0-0.134-0.028-0.246-0.087-0.333
			c-0.056-0.091-0.14-0.133-0.252-0.133c-0.098,0-0.182,0.034-0.255,0.108c-0.077,0.07-0.112,0.189-0.112,0.357
			c0,0.119,0.014,0.217,0.045,0.29c0.056,0.14,0.161,0.21,0.315,0.21C52.313,25.914,52.4,25.869,52.457,25.777z"/>
		<path fill="#041C68" d="M54.158,24.314h0.217v0.242h-0.217V24.314z M54.158,24.794h0.217v1.267h-0.217V24.794z"/>
		<path fill="#041C68" d="M55.887,24.434h0.217v0.357h0.203v0.174h-0.203v0.83c0,0.045,0.014,0.074,0.045,0.088
			c0.018,0.007,0.045,0.014,0.084,0.014c0.011,0,0.021,0,0.035,0c0.01,0,0.024-0.004,0.042-0.004v0.172
			c-0.028,0.007-0.053,0.011-0.081,0.014c-0.024,0.004-0.056,0.004-0.084,0.004c-0.102,0-0.168-0.024-0.203-0.077
			c-0.035-0.052-0.052-0.119-0.052-0.199v-0.844h-0.175v-0.175h0.172V24.434z"/>
		<path fill="#041C68" d="M58.508,24.857c0.091,0.069,0.144,0.188,0.161,0.359h-0.21c-0.011-0.08-0.039-0.143-0.084-0.195
			s-0.116-0.077-0.217-0.077c-0.137,0-0.235,0.066-0.294,0.2c-0.035,0.084-0.056,0.191-0.056,0.318c0,0.125,0.028,0.234,0.081,0.322
			c0.052,0.087,0.14,0.129,0.255,0.129c0.087,0,0.161-0.028,0.21-0.08c0.052-0.053,0.091-0.127,0.108-0.221h0.21
			c-0.024,0.168-0.084,0.29-0.178,0.371c-0.098,0.076-0.217,0.115-0.368,0.115c-0.168,0-0.301-0.06-0.399-0.182
			c-0.098-0.123-0.147-0.273-0.147-0.455c0-0.225,0.056-0.399,0.165-0.521c0.108-0.127,0.245-0.189,0.413-0.189
			C58.302,24.752,58.417,24.787,58.508,24.857z"/>
		<path fill="#041C68" d="M60.955,24.916c0.112,0.109,0.168,0.27,0.168,0.483c0,0.206-0.049,0.374-0.15,0.508
			c-0.098,0.133-0.252,0.199-0.458,0.199c-0.175,0-0.312-0.06-0.413-0.179c-0.105-0.115-0.158-0.276-0.158-0.476
			c0-0.214,0.053-0.386,0.161-0.511c0.108-0.127,0.255-0.189,0.438-0.189C60.703,24.752,60.842,24.809,60.955,24.916z
			 M60.821,25.764c0.053-0.109,0.077-0.228,0.077-0.361c0-0.118-0.018-0.217-0.056-0.29c-0.059-0.118-0.161-0.175-0.308-0.175
			c-0.13,0-0.224,0.049-0.284,0.15c-0.056,0.102-0.087,0.221-0.087,0.36c0,0.137,0.028,0.249,0.087,0.34s0.15,0.136,0.28,0.136
			C60.671,25.924,60.769,25.869,60.821,25.764z"/>
		<path fill="#041C68" d="M62.533,24.314h0.217v0.242h-0.217V24.314z M62.533,24.794h0.217v1.267h-0.217V24.794z"/>
		<path fill="#041C68" d="M64.22,24.787h0.203v0.182c0.06-0.073,0.123-0.129,0.193-0.16c0.066-0.032,0.143-0.05,0.224-0.05
			c0.182,0,0.305,0.063,0.368,0.189c0.035,0.069,0.052,0.168,0.052,0.298v0.818h-0.22V25.26c0-0.077-0.011-0.141-0.035-0.189
			c-0.039-0.076-0.105-0.119-0.207-0.119c-0.052,0-0.091,0.004-0.126,0.014c-0.06,0.018-0.112,0.053-0.154,0.105
			c-0.035,0.042-0.06,0.084-0.07,0.13c-0.01,0.049-0.014,0.112-0.014,0.196v0.668H64.22V24.787L64.22,24.787z"/>
		<path fill="#041C68" d="M69.33,24.822c0.084,0.045,0.147,0.098,0.192,0.168c0.042,0.062,0.07,0.14,0.084,0.224
			c0.014,0.06,0.018,0.154,0.018,0.28H68.7c0.003,0.129,0.035,0.234,0.091,0.312s0.144,0.118,0.263,0.118
			c0.112,0,0.199-0.038,0.266-0.111c0.039-0.042,0.063-0.095,0.077-0.15h0.21c-0.003,0.049-0.021,0.102-0.052,0.157
			c-0.032,0.056-0.067,0.104-0.105,0.14c-0.063,0.063-0.144,0.105-0.242,0.13c-0.053,0.015-0.108,0.018-0.175,0.018
			c-0.158,0-0.291-0.06-0.403-0.175c-0.105-0.112-0.161-0.273-0.161-0.483c0-0.202,0.056-0.37,0.165-0.497
			c0.112-0.125,0.256-0.192,0.434-0.192C69.159,24.759,69.246,24.779,69.33,24.822z M69.407,25.322
			c-0.011-0.091-0.032-0.164-0.063-0.221c-0.056-0.104-0.154-0.153-0.29-0.153c-0.098,0-0.179,0.034-0.245,0.104
			s-0.102,0.161-0.105,0.27H69.407z"/>
		<path fill="#041C68" d="M71.146,24.787l0.339,1.036l0.354-1.036h0.235l-0.476,1.277h-0.228l-0.473-1.277H71.146z"/>
		<path fill="#041C68" d="M74.195,24.822c0.084,0.045,0.146,0.098,0.192,0.168c0.042,0.062,0.069,0.14,0.084,0.224
			c0.014,0.06,0.018,0.154,0.018,0.28h-0.925c0.004,0.129,0.035,0.234,0.092,0.312c0.056,0.077,0.143,0.118,0.262,0.118
			c0.112,0,0.2-0.038,0.267-0.111c0.038-0.042,0.063-0.095,0.077-0.15h0.21c-0.004,0.049-0.024,0.102-0.053,0.157
			c-0.031,0.056-0.066,0.104-0.104,0.14c-0.063,0.063-0.145,0.105-0.242,0.13c-0.053,0.015-0.108,0.018-0.175,0.018
			c-0.157,0-0.29-0.06-0.402-0.175c-0.104-0.112-0.161-0.273-0.161-0.483c0-0.202,0.057-0.37,0.164-0.497
			c0.112-0.125,0.256-0.192,0.435-0.192C74.023,24.759,74.111,24.779,74.195,24.822z M74.271,25.322
			c-0.01-0.091-0.031-0.164-0.062-0.221c-0.057-0.104-0.154-0.153-0.291-0.153c-0.098,0-0.178,0.034-0.244,0.104
			s-0.102,0.161-0.105,0.27H74.271z"/>
		<path fill="#041C68" d="M75.914,24.787h0.203v0.221c0.017-0.043,0.055-0.095,0.122-0.158c0.066-0.062,0.14-0.091,0.224-0.091
			c0.004,0,0.011,0,0.021,0c0.01,0,0.023,0.004,0.049,0.004v0.228c-0.014,0-0.025-0.004-0.035-0.004c-0.011,0-0.021,0-0.035,0
			c-0.108,0-0.192,0.035-0.248,0.105c-0.061,0.066-0.088,0.146-0.088,0.238v0.73h-0.213V24.787L75.914,24.787z"/>
		<path fill="#041C68" d="M78.661,24.787h0.237c-0.031,0.08-0.098,0.27-0.199,0.561c-0.08,0.22-0.146,0.398-0.199,0.535
			c-0.123,0.325-0.21,0.521-0.263,0.595c-0.049,0.069-0.136,0.108-0.263,0.108c-0.031,0-0.053,0-0.07-0.004
			c-0.017-0.003-0.034-0.006-0.059-0.014v-0.195c0.042,0.01,0.066,0.018,0.084,0.021c0.018,0,0.031,0.003,0.045,0.003
			c0.039,0,0.07-0.006,0.088-0.021s0.035-0.028,0.045-0.049c0.004-0.004,0.018-0.038,0.043-0.095
			c0.023-0.06,0.041-0.102,0.053-0.129l-0.47-1.316h0.241l0.344,1.039L78.661,24.787z"/>
		<path fill="#041C68" d="M80.327,24.787l0.245,1.004l0.248-1.004h0.242l0.248,0.998l0.259-0.998h0.214l-0.367,1.277h-0.221
			l-0.26-0.986l-0.252,0.986H80.46l-0.368-1.277H80.327z"/>
		<path fill="#041C68" d="M83.134,24.308h0.214v0.651c0.053-0.063,0.098-0.109,0.137-0.133c0.07-0.047,0.154-0.067,0.259-0.067
			c0.186,0,0.312,0.063,0.374,0.192c0.035,0.07,0.053,0.168,0.053,0.295v0.818h-0.217V25.26c0-0.095-0.011-0.161-0.035-0.207
			c-0.039-0.07-0.111-0.104-0.221-0.104c-0.088,0-0.168,0.031-0.241,0.091s-0.108,0.175-0.108,0.347v0.675h-0.214V24.308z"/>
		<path fill="#041C68" d="M86.42,24.822c0.084,0.042,0.147,0.098,0.193,0.164c0.041,0.062,0.07,0.141,0.084,0.225
			c0.014,0.059,0.018,0.153,0.018,0.279h-0.928c0.004,0.13,0.035,0.234,0.091,0.312s0.144,0.119,0.263,0.119
			c0.111,0,0.199-0.038,0.266-0.112c0.039-0.041,0.063-0.094,0.077-0.15h0.21c-0.007,0.046-0.024,0.098-0.056,0.158
			c-0.032,0.056-0.067,0.104-0.104,0.14c-0.063,0.063-0.145,0.104-0.242,0.13c-0.053,0.014-0.108,0.018-0.175,0.018
			c-0.157,0-0.29-0.061-0.403-0.176c-0.107-0.115-0.164-0.276-0.164-0.486c0-0.203,0.057-0.371,0.164-0.497
			c0.113-0.126,0.256-0.192,0.435-0.192C86.249,24.759,86.336,24.779,86.42,24.822z M86.498,25.322
			c-0.008-0.091-0.028-0.168-0.061-0.224c-0.059-0.102-0.153-0.154-0.29-0.154c-0.099,0-0.179,0.035-0.245,0.104
			c-0.066,0.07-0.102,0.162-0.105,0.27h0.701V25.322z"/>
		<path fill="#041C68" d="M88.143,24.787h0.203v0.221c0.018-0.043,0.056-0.095,0.122-0.158c0.067-0.062,0.14-0.091,0.224-0.091
			c0.004,0,0.012,0,0.021,0c0.011,0,0.024,0.004,0.049,0.004v0.228c-0.014-0.004-0.024-0.004-0.035-0.004c-0.01,0-0.021,0-0.035,0
			c-0.107,0-0.191,0.035-0.248,0.105c-0.06,0.07-0.088,0.15-0.088,0.241v0.731h-0.213V24.787L88.143,24.787z"/>
		<path fill="#041C68" d="M90.879,24.822c0.084,0.042,0.147,0.098,0.193,0.164c0.042,0.062,0.07,0.141,0.084,0.225
			c0.014,0.059,0.018,0.153,0.018,0.279h-0.928c0.004,0.13,0.035,0.234,0.091,0.312s0.144,0.119,0.263,0.119
			c0.111,0,0.199-0.038,0.266-0.112c0.039-0.041,0.063-0.094,0.08-0.15h0.211c-0.008,0.046-0.025,0.098-0.057,0.158
			c-0.031,0.056-0.066,0.104-0.104,0.14c-0.063,0.063-0.144,0.104-0.241,0.13c-0.053,0.014-0.109,0.018-0.176,0.018
			c-0.157,0-0.29-0.061-0.402-0.176c-0.108-0.115-0.164-0.276-0.164-0.486c0-0.203,0.056-0.371,0.164-0.497
			c0.112-0.126,0.256-0.192,0.434-0.192C90.708,24.759,90.795,24.779,90.879,24.822z M90.957,25.322
			c-0.008-0.091-0.028-0.168-0.061-0.224c-0.059-0.102-0.153-0.154-0.29-0.154c-0.099,0-0.179,0.035-0.245,0.104
			c-0.066,0.07-0.102,0.162-0.105,0.27h0.701V25.322z"/>
	</g>
</g>
<g>
	<g>
		<g>
			<path fill="#041C68" d="M91.943,13.506c-0.641,0.172-1.211-0.402-1.043-1.043c0.074-0.28,0.301-0.511,0.584-0.584
				c0.641-0.171,1.211,0.402,1.043,1.043C92.455,13.202,92.227,13.43,91.943,13.506z M91.922,11.956
				c-0.58-0.154-1.099,0.364-0.944,0.945c0.066,0.255,0.272,0.462,0.528,0.529c0.581,0.154,1.1-0.364,0.945-0.945
				C92.385,12.229,92.178,12.022,91.922,11.956z"/>
		</g>
	</g>
	<g>
		<path fill="#041C68" d="M91.951,12.667c0.052-0.028,0.087-0.077,0.08-0.158c-0.011-0.112-0.105-0.147-0.228-0.157v-0.154h-0.095
			v0.151c-0.024,0-0.049,0-0.073,0v-0.151h-0.095v0.154c-0.021,0-0.039,0-0.06,0l0,0h-0.13v0.102c0,0,0.07,0,0.066,0
			c0.039,0,0.049,0.021,0.053,0.042v0.175c0.004,0,0.008,0,0.011,0c-0.003,0-0.007,0-0.011,0v0.245c0,0.01-0.007,0.031-0.035,0.031
			h-0.066l-0.018,0.109h0.123c0.021,0,0.045,0,0.066,0v0.154h0.095v-0.154c0.024,0,0.049,0,0.073,0v0.154h0.095v-0.154
			c0.157-0.011,0.266-0.049,0.28-0.196C92.094,12.74,92.038,12.688,91.951,12.667z M91.636,12.457c0.052,0,0.217-0.018,0.217,0.094
			c0,0.105-0.165,0.095-0.217,0.095V12.457z M91.636,12.943V12.74c0.062,0,0.263-0.018,0.263,0.101
			C91.898,12.957,91.698,12.943,91.636,12.943z"/>
	</g>
</g>
</svg>
