<?xml version="1.0" standalone="no"?>
<!DOCTYPE svg PUBLIC "-//W3C//DTD SVG 20010904//EN"
 "http://www.w3.org/TR/2001/REC-SVG-20010904/DTD/svg10.dtd">
<svg version="1.0" xmlns="http://www.w3.org/2000/svg"
 width="280.000000pt" height="280.000000pt" viewBox="0 0 280.000000 280.000000"
 preserveAspectRatio="xMidYMid meet">
<metadata>
Created by potrace 1.11, written by Peter Selinger 2001-2013
</metadata>
<g transform="translate(0.000000,280.000000) scale(0.100000,-0.100000)"
fill="#000000" stroke="none">
<path d="M0 1400 l0 -1400 1400 0 1400 0 0 1400 0 1400 -1400 0 -1400 0 0
-1400z m1641 415 c89 -135 165 -245 169 -245 4 0 80 110 168 245 l161 245 106
0 c58 0 105 -2 105 -5 0 -3 -97 -147 -215 -321 -128 -186 -213 -320 -208 -327
3 -7 105 -157 225 -334 120 -176 218 -324 218 -327 0 -4 -50 -5 -111 -4 l-111
3 -169 260 c-93 143 -172 261 -176 262 -4 1 -87 -117 -183 -262 l-175 -265
-462 0 -463 0 0 660 0 660 480 0 481 0 160 -245z"/>
<path d="M700 1695 l0 -195 360 0 360 0 0 -80 0 -80 -360 0 -360 0 0 -220 0
-220 318 0 317 0 115 167 c63 92 143 209 178 259 l62 92 -160 236 -161 236
-335 0 -334 0 0 -195z"/>
</g>
</svg>
